<svg width="58" height="58" viewBox="0 0 58 58" fill="none" xmlns="http://www.w3.org/2000/svg">
<g clip-path="url(#clip0_66_24)">
<path d="M51.5555 9.66675H6.44439C5.5898 9.66675 4.77022 10.0062 4.16593 10.6105C3.56165 11.2148 3.22217 12.0344 3.22217 12.889V45.1112C3.22217 45.9658 3.56165 46.7854 4.16593 47.3896C4.77022 47.9939 5.5898 48.3334 6.44439 48.3334H51.5555C52.4101 48.3334 53.2297 47.9939 53.834 47.3896C54.4382 46.7854 54.7777 45.9658 54.7777 45.1112V12.889C54.7777 12.0344 54.4382 11.2148 53.834 10.6105C53.2297 10.0062 52.4101 9.66675 51.5555 9.66675ZM49.0744 45.1112H9.11883L20.3966 33.4467L18.0766 31.2073L6.44439 43.2423V15.3379L26.4705 35.2673C27.0742 35.8674 27.8909 36.2043 28.7422 36.2043C29.5934 36.2043 30.4101 35.8674 31.0138 35.2673L51.5555 14.8384V43.0329L39.6977 31.1751L37.4261 33.4467L49.0744 45.1112ZM8.55495 12.889H48.9455L28.7422 32.9795L8.55495 12.889Z" fill="white"/>
</g>
<defs>
<clipPath id="clip0_66_24">
<rect width="58" height="58" fill="white"/>
</clipPath>
</defs>
</svg>
