<svg width="46" height="46" viewBox="0 0 46 46" fill="none" xmlns="http://www.w3.org/2000/svg">
<path d="M13.266 0.635333C10.9206 0.744556 9.33707 1.11635 7.96013 1.64942L7.95595 1.65104L7.95594 1.65102C6.51986 2.19223 5.21905 3.04006 4.14416 4.13543L4.13751 4.1422L4.13745 4.14214C3.04129 5.21761 2.19277 6.51912 1.65099 7.95602L1.64944 7.96014L1.64942 7.96013C1.11539 9.33954 0.741332 10.9259 0.634823 13.2812C0.526654 15.6731 0.5 16.4312 0.5 22.5556C0.5 28.6781 0.524613 29.436 0.634802 31.8336L13.266 0.635333ZM13.266 0.635333H13.268L13.2795 0.634804C15.6731 0.524614 16.4308 0.5 22.5556 0.5C28.6799 0.5 29.438 0.526654 31.83 0.634823C34.1852 0.741332 35.7716 1.11539 37.151 1.64943L37.1547 1.65086C38.5901 2.19329 39.8923 3.04118 40.9692 4.13764L40.9691 4.1377L40.9758 4.14432C42.0719 5.21885 42.9175 6.51854 43.4579 7.9556L43.4579 7.95561L43.4599 7.96071C43.9956 9.33952 44.3678 10.9257 44.4763 13.2775C44.5865 15.6751 44.6111 16.433 44.6111 22.5556C44.6111 28.6799 44.5845 29.438 44.4763 31.832M13.266 0.635333L0.634806 31.8337C0.743355 34.1854 1.11549 35.7718 1.64942 37.151L1.65109 37.1553C2.19204 38.5921 3.03988 39.8936 4.13549 40.9691L4.14184 40.9753L4.14178 40.9753C5.21825 42.0703 6.52043 42.9175 7.95765 43.4579L7.96277 43.4598L7.96276 43.4599C9.34184 43.9957 10.928 44.3698 13.2791 44.4763M44.4763 31.832C44.4763 31.832 44.4763 31.832 44.4763 31.832L44.9758 31.8546L44.4763 31.832ZM44.4763 31.832C44.3698 34.1832 43.9957 35.7693 43.4599 37.1483L43.4579 37.1535C42.9175 38.5907 42.0703 39.8929 40.9754 40.9693L40.9753 40.9693L40.9692 40.9755C39.8925 42.0717 38.5906 42.9175 37.1553 43.458L37.1504 43.4599C35.7716 43.9956 34.1854 44.3678 31.8337 44.4763M31.8337 44.4763C31.8336 44.4763 31.8336 44.4763 31.8336 44.4763L31.8566 44.9758L31.8337 44.4763ZM31.8337 44.4763C29.438 44.5865 28.6803 44.6111 22.5556 44.6111C16.4312 44.6111 15.6731 44.5845 13.2791 44.4763M13.2791 44.4763C13.2791 44.4763 13.2791 44.4763 13.2791 44.4763L13.2565 44.9758L13.2791 44.4763ZM24.888 30.2432C23.1092 30.781 21.1988 30.6847 19.4831 29.9707L24.888 30.2432ZM24.888 30.2432C26.6671 29.7052 28.2042 28.5663 29.2368 27.021M24.888 30.2432L29.2368 27.021M29.2368 27.021C30.2695 25.4756 30.7336 23.6197 30.5498 21.7702M29.2368 27.021L30.5498 21.7702M30.5498 21.7702C30.3662 19.9209 29.5462 18.1928 28.2301 16.8808M30.5498 21.7702L28.2301 16.8808M28.2301 16.8808C27.3909 16.0422 26.3762 15.4 25.259 15.0006C24.1418 14.6011 22.95 14.4543 21.7693 14.5708C20.5886 14.6872 19.4484 15.064 18.4308 15.674C17.4132 16.284 16.5435 17.1121 15.8844 18.0985C15.2252 19.085 14.7929 20.2053 14.6187 21.3789C14.4445 22.5524 14.5326 23.75 14.8768 24.8854C15.221 26.0209 15.8126 27.0658 16.6091 27.9452C17.4055 28.8244 18.3869 29.5161 19.4828 29.9706L28.2301 16.8808ZM7.78167 43.9259C6.27643 43.3599 4.91264 42.4726 3.78523 41.3259C2.63773 40.1995 1.74973 38.8363 1.18314 37.3315C0.627455 35.8961 0.246061 34.2557 0.135333 31.8566C0.024606 29.4473 0 28.6804 0 22.5556C0 16.4286 0.0266565 15.6618 0.135333 13.2586L7.78167 43.9259ZM9.07054 4.50652L9.07026 4.50663C7.95686 4.9407 7.14579 5.46364 6.30686 6.30201C5.50731 7.08058 4.89169 8.02784 4.50491 9.07466C4.17621 9.92018 3.79867 11.1667 3.69585 13.4182C3.58665 15.8085 3.5641 16.5312 3.5641 22.5556C3.5641 28.58 3.58665 29.3026 3.69585 31.6929C3.79867 33.9444 4.1762 35.1909 4.50491 36.0364C4.89086 37.0806 5.50584 38.0286 6.30446 38.8068C7.08261 39.6053 8.03061 40.2203 9.0747 40.6062C9.92022 40.9349 11.1667 41.3124 13.4183 41.4153C15.8085 41.5245 16.5291 41.547 22.5556 41.547C28.582 41.547 29.3027 41.5245 31.6929 41.4153C33.9481 41.3123 35.195 40.9337 36.0406 40.6046L36.0408 40.6045C37.1542 40.1704 37.9652 39.6475 38.8041 38.8092C39.604 38.0306 40.2199 37.0816 40.6062 36.0363C40.9349 35.1908 41.3124 33.9443 41.4153 31.6929C41.5245 29.3026 41.547 28.58 41.547 22.5556C41.547 16.5312 41.5245 15.8085 41.4153 13.4182C41.3123 11.163 40.9337 9.91613 40.6046 9.07054L40.6045 9.07026C40.1704 7.95686 39.6475 7.14579 38.8091 6.30686C38.0305 5.50735 37.0832 4.89173 36.0364 4.5049C35.1909 4.17619 33.9444 3.79867 31.6929 3.69585C29.3026 3.58665 28.58 3.5641 22.5556 3.5641C16.5312 3.5641 15.8085 3.58665 13.4183 3.69585C11.163 3.79884 9.91613 4.17743 9.07054 4.50652ZM14.7112 14.7112C15.7413 13.6811 16.9643 12.8639 18.3102 12.3064C19.6562 11.7489 21.0987 11.4619 22.5556 11.4619C24.0124 11.4619 25.455 11.7489 26.8009 12.3064C28.1468 12.8639 29.3698 13.6811 30.3999 14.7112C31.4301 15.7413 32.2472 16.9643 32.8047 18.3102C33.3622 19.6562 33.6492 21.0987 33.6492 22.5556C33.6492 24.0124 33.3622 25.455 32.8047 26.8009C32.2472 28.1468 31.4301 29.3698 30.3999 30.3999C28.3195 32.4804 25.4978 33.6492 22.5556 33.6492C19.6133 33.6492 16.7916 32.4804 14.7112 30.3999C12.6307 28.3195 11.4619 25.4978 11.4619 22.5556C11.4619 19.6133 12.6307 16.7916 14.7112 14.7112ZM36.8909 11.5972C36.7701 11.8716 36.5955 12.1191 36.3773 12.3248C35.9531 12.725 35.3897 12.9441 34.8065 12.9356C34.2234 12.9271 33.6666 12.6917 33.2542 12.2793C32.8419 11.8669 32.6064 11.3101 32.5979 10.727C32.5894 10.1438 32.8085 9.58038 33.2087 9.15617C33.4145 8.93804 33.6619 8.76342 33.9364 8.64264C34.2108 8.52186 34.5067 8.45737 34.8065 8.453C35.1064 8.44863 35.404 8.50446 35.6819 8.61719C35.9598 8.72992 36.2122 8.89726 36.4242 9.10929C36.6363 9.32132 36.8036 9.57375 36.9163 9.85161C37.0291 10.1295 37.0849 10.4271 37.0805 10.727C37.0761 11.0268 37.0117 11.3227 36.8909 11.5972Z" fill="white" stroke="white"/>
</svg>
