<svg width="49" height="50" viewBox="0 0 49 50" fill="none" xmlns="http://www.w3.org/2000/svg">
<path d="M6.74854 11.4971C9.37108 11.4971 11.4971 9.37108 11.4971 6.74854C11.4971 4.12599 9.37108 2 6.74854 2C4.12599 2 2 4.12599 2 6.74854C2 9.37108 4.12599 11.4971 6.74854 11.4971Z" stroke="white" stroke-width="3"/>
<path d="M2 18.6196H11.4971V48.298H2V18.6196ZM20.9942 29.8974V48.298H29.3041V31.6781C29.3041 28.7103 31.0848 26.336 34.0526 26.336C37.0205 26.336 38.8012 29.3038 38.8012 31.6781V48.298H47.1111V29.8974C47.1111 26.336 42.9561 18.6196 34.0526 18.6196C25.1491 18.6196 20.9942 26.336 20.9942 29.8974Z" stroke="white" stroke-width="3" stroke-linejoin="round"/>
</svg>
